<svg width="49" height="49" viewBox="0 0 49 49" fill="none" xmlns="http://www.w3.org/2000/svg">
<g id="check-circle">
<path id="Vector" d="M44.9167 22.6216V24.4999C44.9141 28.9026 43.4885 33.1865 40.8524 36.7128C38.2162 40.239 34.5108 42.8187 30.2888 44.067C26.0668 45.3153 21.5544 45.1654 17.4245 43.6397C13.2947 42.1139 9.76865 39.294 7.37236 35.6006C4.97607 31.9071 3.83789 27.538 4.12757 23.1449C4.41725 18.7517 6.11928 14.5699 8.9798 11.2231C11.8403 7.87627 15.7061 5.54379 20.0005 4.57352C24.295 3.60324 28.788 4.04716 32.8096 5.83905" stroke="black" stroke-width="2" stroke-linecap="round" stroke-linejoin="round"/>
<path id="Vector_2" d="M44.9167 8.16675L24.5 28.6038L18.375 22.4788" stroke="black" stroke-width="2" stroke-linecap="round" stroke-linejoin="round"/>
<rect x="0.5" y="0.5" width="48" height="48" stroke="url(#paint0_linear_19_187)"/>
</g>
<defs>
<linearGradient id="paint0_linear_19_187" x1="24.5" y1="0" x2="24.5" y2="49" gradientUnits="userSpaceOnUse">
<stop stop-color="#D9D9D9"/>
<stop offset="1" stop-color="#D9D9D9" stop-opacity="0"/>
</linearGradient>
</defs>
</svg>
