<svg width="44" height="44" viewBox="0 0 44 44" fill="none" xmlns="http://www.w3.org/2000/svg">
<g id="command">
<path id="Vector" d="M32.5 5C31.0413 5 29.6424 5.57946 28.6109 6.61091C27.5795 7.64236 27 9.04131 27 10.5V32.5C27 33.9587 27.5795 35.3576 28.6109 36.3891C29.6424 37.4205 31.0413 38 32.5 38C33.9587 38 35.3576 37.4205 36.3891 36.3891C37.4205 35.3576 38 33.9587 38 32.5C38 31.0413 37.4205 29.6424 36.3891 28.6109C35.3576 27.5795 33.9587 27 32.5 27H10.5C9.04131 27 7.64236 27.5795 6.61091 28.6109C5.57946 29.6424 5 31.0413 5 32.5C5 33.9587 5.57946 35.3576 6.61091 36.3891C7.64236 37.4205 9.04131 38 10.5 38C11.9587 38 13.3576 37.4205 14.3891 36.3891C15.4205 35.3576 16 33.9587 16 32.5V10.5C16 9.04131 15.4205 7.64236 14.3891 6.61091C13.3576 5.57946 11.9587 5 10.5 5C9.04131 5 7.64236 5.57946 6.61091 6.61091C5.57946 7.64236 5 9.04131 5 10.5C5 11.9587 5.57946 13.3576 6.61091 14.3891C7.64236 15.4205 9.04131 16 10.5 16H32.5C33.9587 16 35.3576 15.4205 36.3891 14.3891C37.4205 13.3576 38 11.9587 38 10.5C38 9.04131 37.4205 7.64236 36.3891 6.61091C35.3576 5.57946 33.9587 5 32.5 5Z" stroke="black" stroke-width="2" stroke-linecap="round" stroke-linejoin="round"/>
<rect x="0.5" y="0.5" width="43" height="43" stroke="url(#paint0_linear_19_185)"/>
</g>
<defs>
<linearGradient id="paint0_linear_19_185" x1="22" y1="0" x2="22" y2="44" gradientUnits="userSpaceOnUse">
<stop stop-color="#D9D9D9"/>
<stop offset="1" stop-color="#D9D9D9" stop-opacity="0"/>
</linearGradient>
</defs>
</svg>
