<svg width="17" height="17" viewBox="0 0 17 17" fill="none" xmlns="http://www.w3.org/2000/svg">
<path d="M5.77612 12.4794L8.5018 15.7029L11.2275 12.4794" stroke="white" stroke-width="2" stroke-linecap="round" stroke-linejoin="round"/>
<path d="M8.50177 8.45117V15.703" stroke="white" stroke-width="2" stroke-linecap="round" stroke-linejoin="round"/>
<path d="M14.5527 13.3576C15.1451 12.865 15.5894 12.1621 15.821 11.3508C16.0527 10.5395 16.0596 9.66208 15.8409 8.8458C15.6221 8.02953 15.1891 7.31689 14.6046 6.81133C14.02 6.30576 13.3145 6.03356 12.5902 6.03423H11.7317C11.5267 5.08991 11.1432 4.21286 10.6101 3.46911C10.077 2.72536 9.40811 2.13429 8.65382 1.74041C7.89953 1.34652 7.07949 1.16008 6.25544 1.19511C5.43139 1.23015 4.6248 1.48575 3.89639 1.94268C3.16798 2.39961 2.53673 3.04595 2.05017 3.83306C1.56361 4.62016 1.23442 5.52751 1.08738 6.4868C0.940332 7.44609 0.979269 8.43232 1.20125 9.37124C1.42324 10.3102 1.82249 11.1773 2.36895 11.9074" stroke="white" stroke-width="2" stroke-linecap="round" stroke-linejoin="round"/>
</svg>
