<svg xmlns="http://www.w3.org/2000/svg" width="17" height="17" viewBox="0 0 17 17" fill="none">
  <path d="M5.77612 12.2885L8.5018 15.5119L11.2275 12.2885" stroke="#155FA4" stroke-width="2" stroke-linecap="round" stroke-linejoin="round"/>
  <path d="M8.50177 8.26025V15.5121" stroke="#155FA4" stroke-width="2" stroke-linecap="round" stroke-linejoin="round"/>
  <path d="M14.5527 13.1666C15.1451 12.6741 15.5894 11.9712 15.821 11.1599C16.0527 10.3486 16.0596 9.47113 15.8409 8.65485C15.6221 7.83858 15.1891 7.12595 14.6046 6.62038C14.02 6.11481 13.3145 5.84261 12.5902 5.84328H11.7317C11.5267 4.89896 11.1432 4.02191 10.6101 3.27816C10.077 2.53441 9.40811 1.94334 8.65382 1.54946C7.89953 1.15557 7.07949 0.969127 6.25544 1.00416C5.43139 1.0392 4.6248 1.29481 3.89639 1.75173C3.16798 2.20866 2.53673 2.85501 2.05017 3.64211C1.56361 4.42921 1.23442 5.33656 1.08738 6.29585C0.940332 7.25514 0.979269 8.24137 1.20125 9.18029C1.42324 10.1192 1.82249 10.9864 2.36895 11.7165" stroke="#155FA4" stroke-width="2" stroke-linecap="round" stroke-linejoin="round"/>
</svg>