<svg width="47" height="47" viewBox="0 0 47 47" fill="none" xmlns="http://www.w3.org/2000/svg">
<g id="lock">
<path id="Vector" d="M37.2083 21.5417H9.79167C7.62855 21.5417 5.875 23.2953 5.875 25.4584V39.1667C5.875 41.3299 7.62855 43.0834 9.79167 43.0834H37.2083C39.3714 43.0834 41.125 41.3299 41.125 39.1667V25.4584C41.125 23.2953 39.3714 21.5417 37.2083 21.5417Z" stroke="black" stroke-width="2" stroke-linecap="round" stroke-linejoin="round"/>
<path id="Vector_2" d="M13.7083 21.5417V13.7084C13.7083 11.1115 14.74 8.62095 16.5763 6.78466C18.4126 4.94837 20.9031 3.91675 23.5 3.91675C26.0969 3.91675 28.5875 4.94837 30.4238 6.78466C32.2601 8.62095 33.2917 11.1115 33.2917 13.7084V21.5417" stroke="black" stroke-width="2" stroke-linecap="round" stroke-linejoin="round"/>
<rect x="0.5" y="0.5" width="46" height="46" stroke="url(#paint0_linear_19_174)"/>
</g>
<defs>
<linearGradient id="paint0_linear_19_174" x1="23.5" y1="0" x2="23.5" y2="47" gradientUnits="userSpaceOnUse">
<stop stop-color="#D9D9D9"/>
<stop offset="1" stop-color="#D9D9D9" stop-opacity="0"/>
</linearGradient>
</defs>
</svg>
