<svg width="43" height="43" viewBox="0 0 43 43" fill="none" xmlns="http://www.w3.org/2000/svg">
<g id="phone-call">
<path id="Vector" d="M26.9646 8.95842C28.7146 9.29984 30.3229 10.1557 31.5836 11.4165C32.8444 12.6772 33.7002 14.2855 34.0417 16.0355M26.9646 1.79175C30.6004 2.19565 33.9908 3.82381 36.5791 6.40889C39.1674 8.99396 40.7998 12.3823 41.2083 16.0176M39.4167 30.3151V35.6901C39.4187 36.1891 39.3165 36.683 39.1166 37.1402C38.9167 37.5974 38.6235 38.0078 38.2558 38.3451C37.8881 38.6824 37.454 38.9392 36.9813 39.0991C36.5086 39.259 36.0078 39.3183 35.5108 39.2734C29.9976 38.6744 24.7017 36.7904 20.0487 33.773C15.7198 31.0222 12.0496 27.352 9.29874 23.023C6.27079 18.3489 4.38643 13.0273 3.79833 7.48925C3.75355 6.99379 3.81243 6.49444 3.97122 6.02299C4.13001 5.55154 4.38522 5.11832 4.72061 4.7509C5.05601 4.38349 5.46423 4.08994 5.91928 3.88893C6.37434 3.68793 6.86627 3.58388 7.36374 3.58341H12.7387C13.6082 3.57486 14.4512 3.88276 15.1105 4.44974C15.7698 5.01672 16.2004 5.80409 16.3221 6.66508C16.5489 8.3852 16.9697 10.0741 17.5762 11.6997C17.8173 12.3409 17.8695 13.0379 17.7266 13.7079C17.5837 14.3779 17.2517 14.9929 16.77 15.4801L14.4946 17.7555C17.0451 22.241 20.7591 25.955 25.2446 28.5055L27.52 26.2301C28.0071 25.7484 28.6221 25.4164 29.2922 25.2735C29.9622 25.1306 30.6591 25.1828 31.3004 25.4238C32.9259 26.0304 34.6149 26.4511 36.335 26.678C37.2053 26.8008 38.0002 27.2392 38.5684 27.9098C39.1366 28.5804 39.4385 29.4364 39.4167 30.3151Z" stroke="black" stroke-width="2" stroke-linecap="round" stroke-linejoin="round"/>
<rect x="0.5" y="0.5" width="42" height="42" stroke="url(#paint0_linear_19_172)"/>
</g>
<defs>
<linearGradient id="paint0_linear_19_172" x1="21.5" y1="0" x2="21.5" y2="43" gradientUnits="userSpaceOnUse">
<stop stop-color="#D9D9D9"/>
<stop offset="1" stop-color="#D9D9D9" stop-opacity="0"/>
</linearGradient>
</defs>
</svg>
